<?xml version="1.0" encoding="UTF-8"?>
<svg width="102px" height="46px" viewBox="0 0 102 46" version="1.1" xmlns="http://www.w3.org/2000/svg" xmlns:xlink="http://www.w3.org/1999/xlink">
    <!-- Generator: Sketch 41 (35326) - http://www.bohemiancoding.com/sketch -->
    <title>Page 1</title>
    <desc>Created with Sketch.</desc>
    <defs></defs>
    <g id="Page-1" stroke="none" stroke-width="1" fill="none" fill-rule="evenodd">
        <g id="app下载-copy" transform="translate(-374.000000, -17.000000)" fill="#11BBB4">
            <g id="Group-46" transform="translate(-2.000000, -5.000000)">
                <g id="Page-1" transform="translate(376.000000, 22.000000)">
                    <path d="M16.6240929,9.67666856 C14.7193182,9.67666856 13.1748443,11.2155157 13.1748443,13.113821 C13.1748443,15.0125075 14.7193182,16.5513546 16.6240929,16.5513546 C18.5288676,16.5513546 20.0733415,15.0125075 20.0733415,13.113821 C20.0733415,11.2155157 18.5288676,9.67666856 16.6240929,9.67666856 M4.449217,19.72587 L40.9551029,19.72587 C40.9738447,20.0826599 40.9834068,20.441737 40.9834068,20.8038635 C40.9834068,31.8056482 31.8251891,40.3987199 22.2232889,44.6409368 C22.0993638,44.6954463 21.9631992,44.7533866 21.817855,44.8090397 C21.6568288,44.8707918 21.4935078,44.9565586 21.3171823,45.0083999 C20.7009991,45.1898443 19.831611,45.1925126 19.2785379,44.8284802 C18.682244,44.4350964 18.2882846,43.7607787 18.2882846,42.9949764 C18.2882846,41.5014905 19.3565648,41.0959088 20.4917799,40.5954118 C27.4717463,37.4937029 34.7672627,31.4980313 36.2849627,23.7477615 L32.0466478,23.7477615 C28.7653101,31.4427594 20.9725634,37.0804975 13.132771,39.9264307 C12.2890094,40.2325229 11.5466063,40.4021506 10.7342084,39.8879309 C10.0813067,39.4751067 9.66631063,38.7321756 9.71297378,37.9076707 C9.73898276,37.4494853 9.90498119,37.0317057 10.1658359,36.6935939 C10.6577114,36.0573947 11.3370045,35.9037769 12.0495739,35.6369468 C17.8686987,33.4352176 24.0052859,29.3294652 27.1393669,23.7477615 L22.2324686,23.7477615 C18.4041775,28.3825997 12.9403811,31.9066625 7.42341935,34.031011 C6.61140397,34.3432022 5.8498766,34.5379881 5.04512843,34.0790404 C4.35512572,33.686419 3.90302861,32.9335771 3.93515734,32.0881069 C3.95504655,31.571219 4.15202626,31.1038852 4.46566385,30.7406151 C4.93114794,30.2019996 5.59093434,30.0266541 6.22930159,29.7739279 C9.65827845,28.4039461 13.1863189,26.3615525 16.1218903,23.7477615 L4.69897962,23.7477615 C4.79536581,24.2383476 4.91508357,24.7220724 5.05583801,25.1985546 C5.13577734,25.4261226 5.17938062,25.6700815 5.17938062,25.9247136 C5.17938062,27.1376468 4.19256965,28.1211062 2.97588528,28.1211062 C1.99289917,28.1211062 1.1602296,27.4791893 0.876425831,26.5933135 L0.869923588,26.5952194 C0.308435799,24.7529484 0.000152993947,22.8191928 0.000152993947,20.8038635 C0.000152993947,9.52495661 9.17443509,0.381071452 20.4917799,0.381071452 C29.8320604,0.381071452 37.7120137,6.60926636 40.1801886,15.1253385 L25.695869,15.1253385 C24.5813081,15.1253385 23.6782614,14.2245964 23.6782614,13.113821 C23.6782614,12.0034267 24.5813081,11.1026847 25.695869,11.1026847 L33.2908711,11.1026847 C30.3541523,7.25956935 25.7146108,4.77843093 20.4917799,4.77843093 C11.9734594,4.77843093 5.00535,11.3763761 4.449217,19.72587" id="Fill-1"></path>
                    <path d="M84.2198408,6.2070391 L84.2951903,6.2070391 C84.605003,6.2070391 84.8559131,6.47768102 84.8559131,6.81159979 L84.8559131,7.85757365 L84.8559131,8.83035983 L84.8559131,9.8759525 C84.8559131,10.2098713 84.605003,10.480132 84.2951903,10.480132 L84.2198408,10.480132 L81.7118875,10.480132 L80.6393999,10.480132 L80.5640504,10.480132 C80.2546201,10.480132 80.0033276,10.2098713 80.0033276,9.8759525 L80.0033276,8.83035983 L80.0033276,7.85757365 L80.0033276,6.81159979 C80.0033276,6.47768102 80.2546201,6.2070391 80.5640504,6.2070391 L84.2198408,6.2070391 Z M99.8982781,23.1823867 C100.503369,23.7068983 101.020489,24.2371278 101.213644,24.7296199 C101.43778,25.300255 101.268721,25.8125687 100.97612,26.1026511 C100.487305,26.5882819 99.5865529,26.6732863 98.4608999,25.5209616 C95.3145794,22.3007039 94.9225324,19.6320221 94.7798655,14.9560158 C94.7091058,12.6273517 94.6884517,8.63519269 94.6658851,5.71874008 C94.655558,5.64593359 94.6502032,5.57198354 94.6502032,5.49574638 C94.6502032,4.6788652 95.2648564,4.01712663 96.0229414,4.01712663 C96.7806439,4.01712663 97.3952971,4.6788652 97.3952971,5.49574638 C97.3952971,5.52319176 97.3945321,5.55063714 97.3930022,5.57732014 C97.4385179,8.47547584 97.5184572,12.5236691 97.5016279,14.8576698 C97.4706466,19.0773967 98.4876739,21.5997032 99.8982781,23.1823867 L99.8982781,23.1823867 Z M56.7864959,11.7483372 L58.4483927,11.7483372 L70.2021528,11.7483372 C70.6072042,11.7483372 70.9349938,11.4113689 70.9349938,10.9962576 L70.9349938,10.3825484 L70.9349938,9.7684581 L70.9349938,7.98031548 L70.9349938,7.44627416 L70.9349938,7.15695413 L70.9349938,6.75251599 C70.9349938,6.33740465 70.6072042,6.00043639 70.2021528,6.00043639 L68.5398735,6.00043639 L58.4483927,6.00043639 L56.7864959,6.00043639 C56.381827,6.00043639 56.0536549,6.33740465 56.0536549,6.75251599 L56.0536549,7.15695413 L56.0536549,7.98031548 L56.0536549,9.7684581 L56.0536549,10.3825484 L56.0536549,10.9962576 C56.0536549,11.4113689 56.381827,11.7483372 56.7864959,11.7483372 L56.7864959,11.7483372 Z M68.7911661,17.9307898 L70.4809842,17.9307898 C70.8856532,17.9307898 71.2138252,18.2673769 71.2138252,18.6828694 C71.1598949,20.3246367 71.1419181,21.9484882 71.068481,23.5967356 C71.068481,24.5195865 70.5781354,24.6587193 70.006703,24.6587193 L69.4310633,24.6587193 C68.8707229,24.6587193 68.4163309,25.1481619 68.4163309,25.7523414 C68.4163309,26.3557585 68.8707229,26.8459635 69.4310633,26.8459635 L70.7896495,26.8459635 C72.988555,26.8459635 73.9459147,25.4123236 73.9910479,23.6440027 C74.0415359,21.6462079 74.0977612,19.7642935 74.0977612,17.7893699 C74.0977612,16.6583916 73.2042765,15.7412585 72.1019551,15.7412585 L58.2315238,15.7412585 C58.8121358,15.1393661 59.3552643,14.4692415 59.8662641,13.7320281 L71.8743766,13.7320281 C72.9763155,13.7320281 73.8698002,12.8152763 73.8698002,11.684298 L73.8698002,7.98031548 L73.8698002,7.44627416 L73.8698002,6.06485679 C73.8698002,4.9338785 72.9763155,4.01712663 71.8743766,4.01712663 L68.5398735,4.01712663 L58.4483927,4.01712663 L56.6564511,4.01712663 L55.1146546,4.01712663 C54.0123332,4.01712663 53.1188485,4.9338785 53.1188485,6.06485679 L53.1188485,9.7684581 L53.1188485,11.684298 C53.1188485,12.8152763 54.0123332,13.7320281 55.1146546,13.7320281 L56.4900702,13.7320281 C55.3862188,15.2521971 53.9897666,16.5779614 52.297271,17.7119891 L52.297271,17.7119891 C51.9419426,17.931171 51.7025071,18.3439952 51.7025071,18.817428 C51.7025071,19.5199534 52.2307187,20.0898262 52.8832378,20.0898262 C53.1352954,20.0898262 53.3697586,20.0044406 53.5613835,19.8588276 L53.562531,19.8611147 C54.3932881,19.2927667 55.2240453,18.6489439 56.0536549,17.9281215 L59.5365622,17.9281215 C58.2667124,19.9861437 56.001637,22.1184971 52.7447783,23.5204985 L52.7447783,23.5212609 C52.2299537,23.6954628 51.8558835,24.2146378 51.8558835,24.8279658 C51.8558835,25.5842384 52.425021,26.1975664 53.1268807,26.1975664 C53.3192706,26.1975664 53.5013334,26.1514429 53.6650369,26.0691068 C58.1661189,24.1688955 60.8312734,21.3454523 62.587644,17.9281215 L65.9592481,17.9281215 C65.2478262,20.1771178 64.2361538,22.1238337 61.7419699,23.7694128 C61.2936977,23.9783026 60.9800601,24.4601215 60.9800601,25.0200835 C60.9800601,25.7729254 61.5465202,26.3832039 62.24532,26.3832039 C62.5042623,26.3832039 62.7459927,26.2989618 62.9467973,26.1548736 C66.86,23.6927945 67.5882512,21.8318454 68.7911661,17.9307898 L68.7911661,17.9307898 Z M58.4766966,7.86100432 L68.5123346,7.86100432 C69.0294542,7.86100432 69.4524824,8.31690254 69.4524824,8.8741962 C69.4524824,9.43187103 69.0294542,9.88776926 68.5123346,9.88776926 L58.4766966,9.88776926 C57.9591946,9.88776926 57.5361663,9.43187103 57.5361663,8.8741962 C57.5361663,8.31690254 57.9591946,7.86100432 58.4766966,7.86100432 L58.4766966,7.86100432 Z M86.7794295,23.1823867 C86.7438584,23.2132627 86.7082873,23.24452 86.6734812,23.275396 C86.5671504,22.7672753 86.1456521,22.3883766 85.6419195,22.3883766 C85.6197354,22.3883766 85.5975513,22.3887578 85.5753671,22.3906637 L85.5746022,22.3906637 C85.4935154,22.3960004 85.4147235,22.4112478 85.3389915,22.4360249 L84.2198408,22.6506325 L84.2198408,18.1995258 L85.5696299,18.1995258 L85.5696299,18.1991446 C86.1582741,18.1991446 86.6356152,17.684925 86.6356152,17.0506318 C86.6356152,16.4167198 86.1582741,15.9025001 85.5696299,15.9025001 L84.2198408,15.9025001 L84.2198408,12.6704257 L85.8258947,12.6704257 C86.6753936,12.6704257 87.3638664,11.9286381 87.3638664,11.0134109 L87.3638664,8.83035983 L87.3638664,7.85757365 L87.3638664,5.67414134 C87.3638664,4.75853303 86.6753936,4.01712663 85.8258947,4.01712663 L84.2198408,4.01712663 L79.0329634,4.01712663 C78.183847,4.01712663 77.4953743,4.75853303 77.4953743,5.67414134 L77.4953743,7.85757365 L77.4953743,8.83035983 L77.4953743,11.0134109 C77.4953743,11.9286381 78.183847,12.6704257 79.0329634,12.6704257 L80.6393999,12.6704257 L81.7118875,12.6704257 L81.7118875,23.1709511 L80.0167145,23.5105877 L80.0167145,23.5060134 L79.8706053,23.5346024 L79.8706053,15.9562473 C79.8706053,15.235425 79.3282418,14.6514483 78.6596582,14.6514483 C77.9906922,14.6514483 77.4487111,15.235425 77.4487111,15.9562473 L77.4487111,23.9013031 C77.4452688,23.9352286 77.4429738,23.968773 77.4406789,24.0023173 C76.9862869,24.1208661 76.6489353,24.5618981 76.6489353,25.0883157 C76.6489353,25.7054555 77.1132719,26.2055713 77.6858517,26.2055713 C77.7076534,26.2055713 77.729455,26.2051901 77.7512566,26.2032842 L77.7512566,26.2040466 L77.7516391,26.2032842 C77.8315785,26.1975664 77.9088404,26.1827002 77.9830425,26.1590666 L79.1285847,25.9379789 C79.1809851,25.9311175 79.233768,25.9227314 79.2884633,25.9128206 L85.4713313,24.7128477 C85.4690364,24.7181843 85.4667414,24.7239021 85.4644465,24.7296199 C85.2406929,25.300255 85.4097512,25.8125687 85.7015872,26.1026511 C86.1907853,26.5882819 87.0915372,26.6732863 88.2171901,25.5209616 C91.3635107,22.3007039 91.7559402,19.6320221 91.8978421,14.9560158 C91.9689842,12.6273517 91.9896384,8.63519269 92.012205,5.71874008 C92.0229146,5.64593359 92.0282694,5.57198354 92.0282694,5.49574638 C92.0282694,4.6788652 91.4132337,4.01712663 90.6551487,4.01712663 C89.8974462,4.01712663 89.2831755,4.6788652 89.2831755,5.49574638 C89.2831755,5.52319176 89.283558,5.55063714 89.2850879,5.57732014 C89.2399547,8.47547584 89.1600154,12.5236691 89.1768447,14.8576698 C89.2074435,19.0773967 88.1907987,21.5997032 86.7794295,23.1823867 L86.7794295,23.1823867 Z" id="Fill-4"></path>
                    <path d="M65.5924069,33.9434145 C63.9190356,33.9434145 62.5623617,35.2954806 62.5623617,36.9631685 C62.5623617,38.6308564 63.9190356,39.9829224 65.5924069,39.9829224 C67.2661607,39.9829224 68.6228345,38.6308564 68.6228345,36.9631685 C68.6228345,35.2954806 67.2657782,33.9434145 65.5924069,33.9434145 L65.5924069,33.9434145 Z M78.9965891,36.9791783 L78.9965891,36.9467775 C78.9965891,35.2836638 77.6315006,33.9434145 75.9669265,33.9434145 C74.2935552,33.9434145 72.9364989,35.2954806 72.9364989,36.9631685 C72.9364989,38.6308564 74.2931727,39.9829224 75.9669265,39.9829224 C77.6315006,39.9829224 78.9965891,38.6426731 78.9965891,36.9791783 L78.9965891,36.9791783 Z M80.5743392,40.5932009 C80.5743392,41.0273715 80.2209232,41.3795872 79.7856554,41.3795872 C79.3500052,41.3795872 78.9965891,41.0273715 78.9965891,40.5932009 L78.9965891,40.4235732 L78.9296543,40.4803699 C78.0969847,41.1775588 77.0547134,41.5556951 75.9669265,41.5556951 C73.4214897,41.5556951 71.3583663,39.4991976 71.3583663,36.9631685 C71.3583663,34.4267581 73.4214897,32.3706419 75.9669265,32.3706419 C77.0547134,32.3706419 78.0969847,32.7491594 78.9296543,33.4467294 L78.9965891,33.5023825 L78.9965891,33.1078552 C78.9965891,32.6736846 79.3500052,32.3214689 79.7856554,32.3214689 C80.2209232,32.3214689 80.5743392,32.6736846 80.5743392,33.1078552 L80.5743392,40.5932009 Z M84.9300769,32.4667007 C85.3615199,32.4667007 85.711111,32.8151045 85.711111,33.2454633 C85.711111,33.5824315 85.4961545,33.8694644 85.1951389,33.9781024 L85.1959039,33.9807707 L85.1962864,33.9807707 C84.093965,34.2902936 83.4961411,35.0179773 83.4961411,36.3121031 L83.4961411,40.5394537 C83.4961411,40.9976391 83.1236009,41.368914 82.6634716,41.368914 C82.2037248,41.368914 81.8311845,40.9976391 81.8311845,40.5394537 L81.8311845,36.1962226 C81.8311845,35.2924311 81.9899157,34.4496292 82.5697628,33.7322376 C83.0972094,33.0781227 83.891248,32.7018923 84.713973,32.4968144 C84.7824378,32.4773739 84.8551099,32.4667007 84.9300769,32.4667007 L84.9300769,32.4667007 Z M100.474645,32.3214689 C100.935539,32.3214689 101.309227,32.6938874 101.309227,33.1532163 C101.309227,33.2771017 101.281305,33.3952693 101.23273,33.501239 L101.236554,33.5020013 L97.870305,41.6281204 C97.4323599,42.6851486 96.9970921,43.48602 95.924987,43.937344 C95.306509,44.1980751 94.674644,44.323104 93.8863426,44.3997224 L93.8859602,44.3970541 C93.877163,44.3970541 94.0691704,44.3974353 93.8588037,44.3974353 C93.6488195,44.3974353 93.1144882,44.0558928 93.1144882,43.6556477 C93.1144882,43.2557838 93.4174162,42.9447362 93.8018135,42.9165284 C95.0005211,42.8075093 95.773523,42.2547898 96.3120617,40.9637135 L96.7607164,39.887626 L96.2095557,39.887626 L96.1368836,39.887626 C96.0045439,39.8800023 95.7238,39.8277798 95.5742484,39.5338856 L92.5583552,33.5992037 C92.2057041,32.9210742 92.6149629,32.3214689 93.2789567,32.3214689 C93.6419348,32.3214689 93.9379781,32.5875366 94.0703179,32.8703764 L97.1554408,38.9411416 L99.7150296,32.8025254 L99.716942,32.8036689 C99.8496643,32.5189231 100.138823,32.3214689 100.474645,32.3214689 L100.474645,32.3214689 Z M88.8092385,30.6583552 L88.8092385,30.6583552 C88.8092385,30.1997887 88.4363157,29.8288949 87.9765689,29.8288949 C87.5168221,29.8288949 87.1442818,30.1997887 87.1442818,30.6583552 L87.1442818,37.7030501 C87.1442818,38.6068417 87.3030131,39.4500247 87.8828601,40.1677975 C88.3552289,40.7529178 89.0414068,41.1158067 89.7700405,41.3323202 C90.3009295,41.4905123 91.0226784,41.2907709 91.0226784,40.6560966 C91.0226784,40.1083326 90.6853268,39.9962639 90.2504415,39.8346412 C89.313736,39.4869997 88.8092385,38.7760882 88.8092385,37.5875508 L88.8092385,33.6537133 L90.3567723,33.6537133 C90.7258702,33.6537133 91.0249733,33.3552448 91.0249733,32.9877817 C91.0249733,32.6199374 90.7258702,32.3214689 90.3567723,32.3214689 L88.8092385,32.3214689 L88.8092385,30.6583552 Z M52.5424056,29.8288949 L52.5424056,29.8288949 C52.0845712,29.8288949 51.709736,30.2020758 51.709736,30.6583552 L51.709736,40.7445317 C51.709736,41.2004299 52.0845712,41.573992 52.5424056,41.573992 L59.0331738,41.573992 C59.458497,41.573992 59.8065582,41.2267317 59.8065582,40.8024719 C59.8065582,40.3789745 59.458497,40.0320954 59.0331738,40.0320954 L53.3750751,40.0320954 L53.3750751,36.4722011 L58.6732556,36.4722011 C59.0928415,36.4722011 59.4366954,36.1348517 59.44664,35.718978 L59.44664,35.7010623 L59.44664,35.6842901 L59.44664,35.6839089 C59.4366954,35.2672728 59.092459,34.9303046 58.6732556,34.9303046 L53.3750751,34.9303046 L53.3750751,31.3707915 L59.0331738,31.3707915 C59.458497,31.3707915 59.8065582,31.0239124 59.8065582,30.5996526 C59.8065582,30.175774 59.458497,29.8288949 59.0331738,29.8288949 L52.5424056,29.8288949 Z M61.7736779,44.4721477 C61.3380277,44.4721477 60.9849941,44.1203132 60.9849941,43.6861426 L60.9849941,32.9210742 L60.9849941,32.9123069 C60.9849941,32.8978218 60.9853766,32.8833368 60.9861416,32.8692329 L60.9849941,32.8692329 L60.9849941,32.9123069 L60.9849941,32.9168811 C60.987289,32.4846164 61.3395576,32.1354502 61.7736779,32.1354502 C62.2077982,32.1354502 62.5596843,32.4846164 62.5623617,32.9168811 L62.5623617,32.9123069 L62.5623617,32.9210742 L62.5623617,33.5023825 L62.6292966,33.4467294 C63.4619661,32.7491594 64.5046199,32.3706419 65.5924069,32.3706419 C68.1374612,32.3706419 70.2005846,34.4267581 70.2005846,36.9631685 C70.2005846,39.4991976 68.1374612,41.5556951 65.5924069,41.5556951 C64.5046199,41.5556951 63.4619661,41.1775588 62.6292966,40.4796075 L62.5623617,40.4235732 L62.5623617,43.6861426 C62.5623617,44.1203132 62.2093282,44.4721477 61.7736779,44.4721477 L61.7736779,44.4721477 Z M62.5623617,32.8692329 L62.5612143,32.8692329 C62.5623617,32.8833368 62.5623617,32.8978218 62.5623617,32.9123069 L62.5623617,32.8692329 Z" id="Fill-7"></path>
                </g>
            </g>
        </g>
    </g>
</svg>